<svg width="51" height="51" viewBox="0 0 51 51" fill="none" xmlns="http://www.w3.org/2000/svg">
<g filter="url(#filter0_i_0_715)">
<rect width="51" height="51" rx="25.5" fill="url(#paint0_linear_0_715)" fill-opacity="0.2"/>
<path d="M31.1111 15H18.8889C17.5923 15 16.3488 15.5151 15.4319 16.4319C14.5151 17.3488 14 18.5923 14 19.8889V32.1111C14 33.4077 14.5151 34.6512 15.4319 35.5681C16.3488 36.4849 17.5923 37 18.8889 37H31.1111C32.4077 37 33.6512 36.4849 34.5681 35.5681C35.4849 34.6512 36 33.4077 36 32.1111V19.8889C36 18.5923 35.4849 17.3488 34.5681 16.4319C33.6512 15.5151 32.4077 15 31.1111 15Z" stroke="#82B7DC" stroke-width="2" stroke-linejoin="round"/>
<path d="M25 30.8891C26.2966 30.8891 27.5401 30.374 28.457 29.4572C29.3738 28.5403 29.8889 27.2968 29.8889 26.0002C29.8889 24.7036 29.3738 23.4601 28.457 22.5433C27.5401 21.6264 26.2966 21.1113 25 21.1113C23.7034 21.1113 22.4599 21.6264 21.543 22.5433C20.6262 23.4601 20.1111 24.7036 20.1111 26.0002C20.1111 27.2968 20.6262 28.5403 21.543 29.4572C22.4599 30.374 23.7034 30.8891 25 30.8891Z" stroke="#82B7DC" stroke-width="2" stroke-linejoin="round"/>
<path d="M31.7227 18.3057C31.9803 18.3058 32.2279 18.4086 32.4102 18.5908C32.5922 18.7731 32.6943 19.0207 32.6943 19.2783C32.6942 19.536 32.5924 19.7836 32.4102 19.9658C32.2279 20.148 31.9803 20.2499 31.7227 20.25C31.465 20.25 31.2174 20.1479 31.0352 19.9658C30.8529 19.7836 30.7501 19.536 30.75 19.2783C30.75 19.0205 30.8528 18.7731 31.0352 18.5908C31.2175 18.4085 31.4648 18.3057 31.7227 18.3057Z" stroke="#82B7DC" stroke-width="0.5"/>
</g>
<defs>
<filter id="filter0_i_0_715" x="0" y="0" width="51" height="55" filterUnits="userSpaceOnUse" color-interpolation-filters="sRGB">
<feFlood flood-opacity="0" result="BackgroundImageFix"/>
<feBlend mode="normal" in="SourceGraphic" in2="BackgroundImageFix" result="shape"/>
<feColorMatrix in="SourceAlpha" type="matrix" values="0 0 0 0 0 0 0 0 0 0 0 0 0 0 0 0 0 0 127 0" result="hardAlpha"/>
<feOffset dy="4"/>
<feGaussianBlur stdDeviation="2"/>
<feComposite in2="hardAlpha" operator="arithmetic" k2="-1" k3="1"/>
<feColorMatrix type="matrix" values="0 0 0 0 1 0 0 0 0 1 0 0 0 0 1 0 0 0 0.08 0"/>
<feBlend mode="normal" in2="shape" result="effect1_innerShadow_0_715"/>
</filter>
<linearGradient id="paint0_linear_0_715" x1="73" y1="57" x2="27" y2="40" gradientUnits="userSpaceOnUse">
<stop stop-color="white"/>
<stop offset="1"/>
</linearGradient>
</defs>
</svg>
