<svg width="51" height="51" viewBox="0 0 51 51" fill="none" xmlns="http://www.w3.org/2000/svg">
<g filter="url(#filter0_i_0_720)">
<rect width="51" height="51" rx="25.5" fill="url(#paint0_linear_0_720)" fill-opacity="0.2"/>
<path d="M21.5113 15.1165L20.5129 15.4136C19.624 15.6784 18.8301 16.1885 18.2248 16.884C17.6194 17.5794 17.2278 18.4311 17.096 19.339C16.6824 22.1833 17.607 25.509 19.8362 29.3229C22.0599 33.1273 24.5077 35.5782 27.202 36.651C28.0677 36.9956 29.0154 37.0875 29.9323 36.9156C30.8493 36.7437 31.6971 36.3153 32.3747 35.6814L33.1294 34.9744C33.6195 34.5163 33.9245 33.898 33.9877 33.2344C34.051 32.5709 33.8682 31.9072 33.4733 31.3668L31.5853 28.781C31.33 28.4319 30.9705 28.1705 30.5573 28.0334C30.144 27.8962 29.6977 27.8903 29.2808 28.0163L26.425 28.8787L26.3512 28.8924C26.0366 28.9378 25.3097 28.2653 24.4047 26.7166C23.4578 25.0964 23.2629 24.1487 23.5233 23.9039L24.9756 22.5656C25.5061 22.0763 25.8685 21.4353 26.0121 20.7325C26.1556 20.0296 26.0731 19.3 25.7762 18.6458L24.8544 16.6226C24.5772 16.0138 24.0854 15.5253 23.4705 15.2482C22.8557 14.9711 22.1584 14.9243 21.5113 15.1165ZM23.5873 17.1865L24.5063 19.2097C24.6847 19.6021 24.7344 20.0398 24.6485 20.4615C24.5626 20.8832 24.3454 21.2678 24.0273 21.5616L22.5709 22.9012C21.638 23.7732 21.9471 25.2614 23.2002 27.4043C24.3782 29.4206 25.4531 30.4164 26.6088 30.2431L26.7815 30.2073L29.6888 29.3312C29.8278 29.289 29.9766 29.2909 30.1145 29.3365C30.2523 29.3822 30.3722 29.4693 30.4574 29.5856L32.3455 32.1714C32.5432 32.4416 32.6348 32.7735 32.6033 33.1054C32.5718 33.4374 32.4193 33.7467 32.1742 33.9759L31.4182 34.6828C30.9341 35.1354 30.3287 35.4411 29.6738 35.5638C29.019 35.6864 28.3423 35.6208 27.7241 35.3747C25.3599 34.4339 23.1251 32.1961 21.0434 28.6352C18.9562 25.0661 18.111 22.0306 18.4745 19.5343C18.5685 18.8857 18.8482 18.2772 19.2807 17.7803C19.7131 17.2835 20.2802 16.919 20.9153 16.7299L21.9137 16.4328C22.2373 16.3367 22.5853 16.3602 22.8928 16.4989C23.2002 16.6376 23.4461 16.882 23.5845 17.1865" fill="#82B7DC"/>
</g>
<defs>
<filter id="filter0_i_0_720" x="0" y="0" width="51" height="55" filterUnits="userSpaceOnUse" color-interpolation-filters="sRGB">
<feFlood flood-opacity="0" result="BackgroundImageFix"/>
<feBlend mode="normal" in="SourceGraphic" in2="BackgroundImageFix" result="shape"/>
<feColorMatrix in="SourceAlpha" type="matrix" values="0 0 0 0 0 0 0 0 0 0 0 0 0 0 0 0 0 0 127 0" result="hardAlpha"/>
<feOffset dy="4"/>
<feGaussianBlur stdDeviation="2"/>
<feComposite in2="hardAlpha" operator="arithmetic" k2="-1" k3="1"/>
<feColorMatrix type="matrix" values="0 0 0 0 1 0 0 0 0 1 0 0 0 0 1 0 0 0 0.08 0"/>
<feBlend mode="normal" in2="shape" result="effect1_innerShadow_0_720"/>
</filter>
<linearGradient id="paint0_linear_0_720" x1="73" y1="57" x2="27" y2="40" gradientUnits="userSpaceOnUse">
<stop stop-color="white"/>
<stop offset="1"/>
</linearGradient>
</defs>
</svg>
