<svg width="196" height="51" viewBox="0 0 196 51" fill="none" xmlns="http://www.w3.org/2000/svg">
<path d="M170.958 0C184.788 0 196 11.2118 196 25.042C196 38.8722 184.788 50.084 170.958 50.084C156.527 50.084 143.455 34.2589 129.173 32.1917C128.301 32.0654 127.408 32 126.5 32C110.579 32 95.2814 50.084 79.3601 50.084H25.042C11.2118 50.084 8.24699e-05 38.8722 0 25.042C0 11.2118 11.2118 0 25.042 0H80.7245C96.3406 0 111.384 18 127 18C127.784 18 128.555 17.9499 129.312 17.8528C143.532 16.0292 156.622 0 170.958 0Z" fill="white"/>
</svg>
