<svg width="269" height="59" viewBox="0 0 269 59" fill="none" xmlns="http://www.w3.org/2000/svg">
<path d="M239.5 0C255.792 3.76892e-06 269 13.2076 269 29.5C269 45.7924 255.792 59 239.5 59C226.953 59 216.704 48.0782 206.199 41.2164C202.117 38.55 197.24 37 192 37C191.148 37 190.305 37.041 189.473 37.1212C169.83 39.0155 151.744 59 132.009 59H29.5C13.2076 59 0 45.7924 0 29.5C0 13.2076 13.2076 0 29.5 0H128.523C147.665 0 165.123 18.7728 184.152 20.8458C185.088 20.9477 186.038 21 187 21C190.037 21 192.953 20.4792 195.662 19.5219C210.438 14.3016 223.829 0 239.5 0Z" fill="white"/>
</svg>
