<svg width="20" height="6" viewBox="0 0 20 6" fill="none" xmlns="http://www.w3.org/2000/svg">
<path d="M-4.14607e-05 2.93565C-4.14607e-05 4.43338 1.2141 5.64752 2.71183 5.64752C4.20955 5.64752 5.4237 4.43338 5.4237 2.93565C5.4237 1.43793 4.20955 0.223782 2.71183 0.223782C1.2141 0.223782 -4.14607e-05 1.43793 -4.14607e-05 2.93565ZM20 2.93565L14.9152 -3.3217e-05V5.87134L20 2.93565ZM3.79234 3.44413C4.07316 3.44413 4.30081 3.21648 4.30081 2.93565C4.30081 2.65483 4.07316 2.42718 3.79234 2.42718V2.93565L3.79234 3.44413ZM5.95336 2.42718C5.67254 2.42718 5.44489 2.65483 5.44489 2.93565C5.44489 3.21648 5.67254 3.44413 5.95336 3.44413V2.93565V2.42718ZM8.11438 3.44413C8.39521 3.44413 8.62286 3.21648 8.62286 2.93565C8.62286 2.65483 8.39521 2.42718 8.11438 2.42718V2.93565V3.44413ZM10.2754 2.42718C9.99458 2.42718 9.76693 2.65483 9.76693 2.93565C9.76693 3.21648 9.99458 3.44413 10.2754 3.44413V2.93565V2.42718ZM12.4364 3.44413C12.7172 3.44413 12.9449 3.21648 12.9449 2.93565C12.9449 2.65483 12.7172 2.42718 12.4364 2.42718V2.93565V3.44413ZM14.5974 2.42718C14.3166 2.42718 14.089 2.65483 14.089 2.93565C14.089 3.21648 14.3166 3.44413 14.5974 3.44413V2.93565V2.42718ZM16.7585 3.44413C17.0393 3.44413 17.2669 3.21648 17.2669 2.93565C17.2669 2.65483 17.0393 2.42718 16.7585 2.42718V2.93565V3.44413ZM18.9195 2.42718C18.6387 2.42718 18.411 2.65483 18.411 2.93565C18.411 3.21648 18.6387 3.44413 18.9195 3.44413V2.93565V2.42718ZM2.71183 2.93565V3.44413L3.79234 3.44413L3.79234 2.93565V2.42718H2.71183V2.93565ZM5.95336 2.93565V3.44413L8.11438 3.44413V2.93565V2.42718L5.95336 2.42718V2.93565ZM10.2754 2.93565V3.44413H12.4364V2.93565V2.42718L10.2754 2.42718V2.93565ZM14.5974 2.93565V3.44413L16.7585 3.44413V2.93565V2.42718L14.5974 2.42718V2.93565Z" fill="#D9D9D9"/>
</svg>
