<svg width="20" height="6" viewBox="0 0 20 6" fill="none" xmlns="http://www.w3.org/2000/svg">
<path d="M5.09165e-06 2.93565C5.09165e-06 4.43337 1.21415 5.64751 2.71187 5.64751C4.20959 5.64751 5.42373 4.43337 5.42373 2.93565C5.42373 1.43792 4.20959 0.223782 2.71187 0.223782C1.21415 0.223782 5.09165e-06 1.43792 5.09165e-06 2.93565ZM20 2.93565L14.9153 -3.3217e-05V5.87132L20 2.93565ZM3.79238 3.44412C4.0732 3.44412 4.30085 3.21647 4.30085 2.93565C4.30085 2.65482 4.0732 2.42717 3.79238 2.42717L3.79238 2.93565V3.44412ZM5.95339 2.42717C5.67257 2.42717 5.44492 2.65482 5.44492 2.93565C5.44492 3.21647 5.67257 3.44412 5.95339 3.44412V2.93565V2.42717ZM8.11441 3.44412C8.39523 3.44412 8.62288 3.21647 8.62288 2.93565C8.62288 2.65482 8.39523 2.42717 8.11441 2.42717V2.93565V3.44412ZM10.2754 2.42717C9.9946 2.42717 9.76695 2.65482 9.76695 2.93565C9.76695 3.21647 9.9946 3.44412 10.2754 3.44412V2.93565V2.42717ZM12.4364 3.44412C12.7173 3.44412 12.9449 3.21647 12.9449 2.93565C12.9449 2.65482 12.7173 2.42717 12.4364 2.42717V2.93565V3.44412ZM14.5975 2.42717C14.3166 2.42717 14.089 2.65482 14.089 2.93565C14.089 3.21647 14.3166 3.44412 14.5975 3.44412V2.93565V2.42717ZM16.7585 3.44412C17.0393 3.44412 17.2669 3.21647 17.2669 2.93565C17.2669 2.65482 17.0393 2.42717 16.7585 2.42717V2.93565V3.44412ZM18.9195 2.42717C18.6387 2.42717 18.411 2.65482 18.411 2.93565C18.411 3.21647 18.6387 3.44412 18.9195 3.44412V2.93565V2.42717ZM2.71187 2.93565V3.44412H3.79238V2.93565L3.79238 2.42717L2.71187 2.42717V2.93565ZM5.95339 2.93565V3.44412L8.11441 3.44412V2.93565V2.42717L5.95339 2.42717V2.93565ZM10.2754 2.93565V3.44412L12.4364 3.44412V2.93565V2.42717L10.2754 2.42717V2.93565ZM14.5975 2.93565V3.44412L16.7585 3.44412V2.93565V2.42717L14.5975 2.42717V2.93565Z" fill="#D9D9D9"/>
</svg>
